<mxfile>
  <diagram name="Page-1" id="dummy-id-2">
    <!-- Diagram 2 placeholder content -->
    <mxGraphModel>
      <root>
        <mxCell id="0"/>
        <mxCell id="1" parent="0"/>
      </root>
    </mxGraphModel>
  </diagram>
</mxfile>